<svg width="900" height="383" viewBox="0 0 900 383" fill="none" xmlns="http://www.w3.org/2000/svg">
<rect width="900" height="383" fill="url(#paint0_radial)"/>
<path fill-rule="evenodd" clip-rule="evenodd" d="M900 0H0V383H900V0ZM34.5 65L68.5 32H580.5L614.5 63H853.5V287.5L793 348H34.5V287.5L53 264V206.5L34.5 183V65Z" fill="url(#paint1_linear)"/>
<path d="M861.123 307.118L817.549 352.221C815.096 354.76 816.896 359 820.426 359H864C866.209 359 868 357.209 868 355V309.897C868 306.3 863.622 304.531 861.123 307.118Z" fill="#DCDCDC" stroke="#E9E9E9" stroke-width="5"/>
<path d="M623.642 48.2198L591.742 19.2198C589.713 17.3753 591.018 14 593.76 14H850.5C852.157 14 853.5 15.3431 853.5 17V46C853.5 47.6569 852.157 49 850.5 49H625.66C624.914 49 624.194 48.7218 623.642 48.2198Z" fill="#E1E0E0" stroke="#D2D0D0" stroke-width="4"/>
<path d="M849.5 67L854 63L854 287L849.5 284L849.5 67Z" fill="url(#paint2_linear)"/>
<path d="M39.0001 181L34.5001 183L34.5001 64.9999L39.0001 67.5L39.0001 181Z" fill="url(#paint3_linear)"/>
<path d="M57.9999 265.5L53 264L53 206.5L58 204L57.9999 265.5Z" fill="#E3E6E6"/>
<path d="M58 204L53 206.5L34.5 183L39 181L58 204Z" fill="url(#paint4_linear)"/>
<path d="M38.5 291L34.5 287.5L53.0002 264L58 265.5L38.5 291Z" fill="url(#paint5_linear)"/>
<path d="M611.5 67L614.464 63L854 63L849.5 67L611.5 67Z" fill="url(#paint6_linear)"/>
<path d="M72 36L68.5 31.9999L580.5 31.9999L577.5 36L506 36L72 36Z" fill="url(#paint7_linear)"/>
<path d="M790.5 344L793 348L34 348L38.4297 344L144.004 344L790.5 344Z" fill="url(#paint8_linear)"/>
<path d="M39 67.5L34.5001 64.9999L68.5001 32L72 36L39 67.5Z" fill="url(#paint9_linear)"/>
<path d="M614.5 62.9999L611.5 67L577.5 36L580.5 32L614.5 62.9999Z" fill="url(#paint10_linear)"/>
<path d="M793 348L790.5 344L849.5 284L854 287L793 348Z" fill="url(#paint11_linear)"/>
<path d="M38.5 344L34.0002 348L34.5001 287.5L38.5002 291L38.5 344Z" fill="url(#paint12_linear)"/>
<path d="M32 200L44 211.447V217.171L32 205.724V200Z" fill="#333333"/>
<path d="M32 211.707L44 223.155V228.878L32 217.431V211.707Z" fill="#333333"/>
<path d="M32 223.415L44 234.862V240.585L32 229.138V223.415Z" fill="#333333"/>
<path d="M32 235.122L44 246.569V252.293L32 240.846V235.122Z" fill="#333333"/>
<path d="M32 246.829L44 258.276V264L32 252.553V246.829Z" fill="#333333"/>
<rect x="21" y="85" width="3" height="33" rx="1.5" fill="#C9C8C7"/>
<rect x="21" y="125" width="3" height="50" rx="1.5" fill="#C9C8C7"/>
<rect x="868" y="67" width="3" height="33" rx="1.5" fill="#686868"/>
<rect x="868" y="107" width="3" height="20" rx="1.5" fill="#686868"/>
<rect x="868" y="137" width="3" height="61" rx="1.5" fill="#686868"/>
<rect x="19" y="16" width="11.0526" height="11.0526" fill="#333333"/>
<rect x="30.0527" y="27.0526" width="9.94737" height="9.94737" fill="#333333"/>
<rect x="19" y="37" width="11.0526" height="11.0526" fill="#333333"/>
<path d="M652.859 44.1009H648.134C647.536 44.1009 647.268 43.8568 647.268 43.8568C647 43.6128 647 43.0674 647 43.0674V24.4642C647 23.9187 647.268 23.6747 647.268 23.6747C647.536 23.4307 648.134 23.4307 648.134 23.4307H651.41C652.009 23.4307 652.434 23.6029 652.434 23.6029C652.859 23.7752 653.269 24.2058 653.269 24.2058L659.38 30.5791V24.4642C659.38 23.9187 659.648 23.6747 659.648 23.6747C659.916 23.4307 660.514 23.4307 660.514 23.4307H665.24C665.838 23.4307 666.106 23.6747 666.106 23.6747C666.374 23.9187 666.374 24.4642 666.374 24.4642V43.0674C666.374 43.6128 666.106 43.8568 666.106 43.8568C665.838 44.1009 665.24 44.1009 665.24 44.1009H660.514C659.916 44.1009 659.648 43.8568 659.648 43.8568C659.38 43.6128 659.38 43.0674 659.38 43.0674V39.5362L653.993 33.5935V43.0674C653.993 43.6128 653.726 43.8568 653.726 43.8568C653.458 44.1009 652.859 44.1009 652.859 44.1009Z" fill="#3C3C3C"/>
<path d="M693.087 28.8853V38.6749C693.087 39.9955 692.662 41.0721 692.662 41.0721C692.237 42.1486 691.15 42.9094 691.15 42.9094C690.063 43.6702 688.157 44.1008 688.157 44.1008C686.251 44.5315 683.321 44.5315 683.321 44.5315C680.392 44.5315 678.47 44.1008 678.47 44.1008C676.549 43.6702 675.462 42.9094 675.462 42.9094C674.375 42.1486 673.95 41.0721 673.95 41.0721C673.524 39.9955 673.524 38.6749 673.524 38.6749V28.8853C673.524 27.5647 673.95 26.4881 673.95 26.4881C674.375 25.4115 675.462 24.6364 675.462 24.6364C676.549 23.8613 678.47 23.4306 678.47 23.4306C680.392 23 683.321 23 683.321 23C686.251 23 688.157 23.4306 688.157 23.4306C690.063 23.8613 691.15 24.6364 691.15 24.6364C692.237 25.4115 692.662 26.4881 692.662 26.4881C693.087 27.5647 693.087 28.8853 693.087 28.8853ZM680.675 29.9188V37.6414C680.675 38.2156 681.148 38.6031 681.148 38.6031C681.62 38.9907 683.321 38.9907 683.321 38.9907C685.023 38.9907 685.495 38.6031 685.495 38.6031C685.968 38.2156 685.968 37.6414 685.968 37.6414V29.9188C685.968 29.3733 685.495 28.9857 685.495 28.9857C685.023 28.5982 683.321 28.5982 683.321 28.5982C681.62 28.5982 681.148 28.9857 681.148 28.9857C680.675 29.3733 680.675 29.9188 680.675 29.9188Z" fill="#3C3C3C"/>
<path d="M717.406 44.1009H701.372C700.773 44.1009 700.506 43.8568 700.506 43.8568C700.238 43.6128 700.238 43.0674 700.238 43.0674V24.4642C700.238 23.9187 700.506 23.6747 700.506 23.6747C700.773 23.4307 701.372 23.4307 701.372 23.4307H706.255C706.853 23.4307 707.121 23.6747 707.121 23.6747C707.389 23.9187 707.389 24.4642 707.389 24.4642V38.6749H711.704V34.0241C711.704 33.4787 711.972 33.2346 711.972 33.2346C712.24 32.9906 712.839 32.9906 712.839 32.9906H717.406C718.005 32.9906 718.273 33.2346 718.273 33.2346C718.54 33.4787 718.54 34.0241 718.54 34.0241V43.0674C718.54 43.6128 718.273 43.8568 718.273 43.8568C718.005 44.1009 717.406 44.1009 717.406 44.1009Z" fill="#3C3C3C"/>
<path d="M739.332 44.1009H725.912C725.314 44.1009 725.046 43.8568 725.046 43.8568C724.778 43.6128 724.778 43.0674 724.778 43.0674V39.651C724.778 39.1056 725.046 38.8615 725.046 38.8615C725.314 38.6175 725.912 38.6175 725.912 38.6175H729.031V28.9714H725.912C725.314 28.9714 725.046 28.7274 725.046 28.7274C724.778 28.4834 724.778 27.9379 724.778 27.9379V24.4642C724.778 23.9187 725.046 23.6747 725.046 23.6747C725.314 23.4307 725.912 23.4307 725.912 23.4307H739.332C739.931 23.4307 740.198 23.6747 740.198 23.6747C740.466 23.9187 740.466 24.4642 740.466 24.4642V27.9379C740.466 28.4834 740.198 28.7274 740.198 28.7274C739.931 28.9714 739.332 28.9714 739.332 28.9714H736.277V38.6175H739.332C739.931 38.6175 740.198 38.8615 740.198 38.8615C740.466 39.1056 740.466 39.651 740.466 39.651V43.0674C740.466 43.6128 740.198 43.8568 740.198 43.8568C739.931 44.1009 739.332 44.1009 739.332 44.1009Z" fill="#3C3C3C"/>
<path d="M760.722 44.1009H748.625C748.027 44.1009 747.759 43.8568 747.759 43.8568C747.491 43.6128 747.491 43.0674 747.491 43.0674V24.4642C747.491 23.9187 747.759 23.6747 747.759 23.6747C748.027 23.4307 748.625 23.4307 748.625 23.4307H758.674C761.762 23.4307 763.242 24.5072 763.242 24.5072C764.723 25.5838 764.723 27.8231 764.723 27.8231V29.2011C764.723 30.4069 764.266 31.1676 764.266 31.1676C763.809 31.9284 762.864 32.3016 762.864 32.3016C764.88 32.4739 765.857 33.5648 765.857 33.5648C766.833 34.6557 766.833 36.7515 766.833 36.7515V39.3926C766.833 41.8042 765.337 42.9525 765.337 42.9525C763.841 44.1009 760.722 44.1009 760.722 44.1009ZM757.257 28.3111H754.579V31.4117H757.257C757.855 31.4117 758.155 31.1246 758.155 31.1246C758.454 30.8375 758.454 30.2633 758.454 30.2633V29.4595C758.454 28.8853 758.155 28.5982 758.155 28.5982C757.855 28.3111 757.257 28.3111 757.257 28.3111ZM758.674 35.8328H754.579V39.2204H758.674C759.273 39.2204 759.572 38.9333 759.572 38.9333C759.871 38.6462 759.871 38.0721 759.871 38.0721V36.9524C759.871 36.3782 759.572 36.1055 759.572 36.1055C759.273 35.8328 758.674 35.8328 758.674 35.8328Z" fill="#3C3C3C"/>
<path d="M792.696 28.8853V38.6749C792.696 39.9955 792.271 41.0721 792.271 41.0721C791.845 42.1486 790.759 42.9094 790.759 42.9094C789.672 43.6702 787.766 44.1008 787.766 44.1008C785.86 44.5315 782.93 44.5315 782.93 44.5315C780.001 44.5315 778.079 44.1008 778.079 44.1008C776.157 43.6702 775.071 42.9094 775.071 42.9094C773.984 42.1486 773.559 41.0721 773.559 41.0721C773.133 39.9955 773.133 38.6749 773.133 38.6749V28.8853C773.133 27.5647 773.559 26.4881 773.559 26.4881C773.984 25.4115 775.071 24.6364 775.071 24.6364C776.157 23.8613 778.079 23.4306 778.079 23.4306C780.001 23 782.93 23 782.93 23C785.86 23 787.766 23.4306 787.766 23.4306C789.672 23.8613 790.759 24.6364 790.759 24.6364C791.845 25.4115 792.271 26.4881 792.271 26.4881C792.696 27.5647 792.696 28.8853 792.696 28.8853ZM780.284 29.9188V37.6414C780.284 38.2156 780.757 38.6031 780.757 38.6031C781.229 38.9907 782.93 38.9907 782.93 38.9907C784.631 38.9907 785.104 38.6031 785.104 38.6031C785.577 38.2156 785.577 37.6414 785.577 37.6414V29.9188C785.577 29.3733 785.104 28.9857 785.104 28.9857C784.631 28.5982 782.93 28.5982 782.93 28.5982C781.229 28.5982 780.757 28.9857 780.757 28.9857C780.284 29.3733 780.284 29.9188 780.284 29.9188Z" fill="#3C3C3C"/>
<path d="M806.62 40.2252V43.0674C806.62 43.6128 806.352 43.8568 806.352 43.8568C806.084 44.1009 805.486 44.1009 805.486 44.1009H800.698C800.099 44.1009 799.831 43.8568 799.831 43.8568C799.563 43.6128 799.563 43.0674 799.563 43.0674V39.9955C799.563 38.6749 799.815 38.0146 799.815 38.0146C800.068 37.3543 800.761 36.4644 800.761 36.4644L803.312 33.3351L800.761 30.2059C800.036 29.3159 799.8 28.6556 799.8 28.6556C799.563 27.9953 799.563 26.6747 799.563 26.6747V24.4642C799.563 23.9187 799.831 23.6747 799.831 23.6747C800.099 23.4307 800.698 23.4307 800.698 23.4307H805.549C806.147 23.4307 806.415 23.6747 806.415 23.6747C806.683 23.9187 806.683 24.4642 806.683 24.4642V26.4451C806.683 26.7322 806.714 27.0479 806.714 27.0479C806.746 27.3637 806.966 27.6508 806.966 27.6508L808.353 29.4595C808.51 29.6891 808.683 29.8183 808.683 29.8183C808.857 29.9475 809.109 29.9475 809.109 29.9475H809.487C809.739 29.9475 809.896 29.8183 809.896 29.8183C810.054 29.6891 810.243 29.4595 810.243 29.4595L811.66 27.6508C811.881 27.3637 811.912 27.0479 811.912 27.0479C811.944 26.7322 811.944 26.4451 811.944 26.4451V24.4642C811.944 23.9187 812.211 23.6747 812.211 23.6747C812.479 23.4307 813.078 23.4307 813.078 23.4307H817.866C818.465 23.4307 818.732 23.6747 818.732 23.6747C819 23.9187 819 24.4642 819 24.4642V26.6747C819 27.9953 818.748 28.6556 818.748 28.6556C818.496 29.3159 817.803 30.2059 817.803 30.2059L815.251 33.3638L817.803 36.4644C818.528 37.3543 818.764 38.0146 818.764 38.0146C819 38.6749 819 39.9955 819 39.9955V43.0674C819 43.6128 818.732 43.8568 818.732 43.8568C818.465 44.1009 817.866 44.1009 817.866 44.1009H813.078C812.479 44.1009 812.211 43.8568 812.211 43.8568C811.944 43.6128 811.944 43.0674 811.944 43.0674V40.2252C811.944 39.9381 811.912 39.6223 811.912 39.6223C811.881 39.3065 811.66 39.0194 811.66 39.0194L810.274 37.2108C810.085 36.9524 809.928 36.8376 809.928 36.8376C809.77 36.7227 809.518 36.7227 809.518 36.7227H809.077C808.825 36.7227 808.668 36.8376 808.668 36.8376C808.51 36.9524 808.321 37.2108 808.321 37.2108L806.903 39.0194C806.683 39.3065 806.651 39.6223 806.651 39.6223C806.62 39.9381 806.62 40.2252 806.62 40.2252Z" fill="#3C3C3C"/>
<path d="M544.072 53.7168L552.206 53.7168L534.128 72.668L525.994 72.668L544.072 53.7168Z" stroke="#90C1C1"/>
<path d="M524.607 53.7168L532.741 53.7168L514.663 72.668L506.529 72.668L524.607 53.7168Z" stroke="#90C1C1"/>
<path d="M505.143 53.7168L513.277 53.7168L495.199 72.668L487.065 72.668L505.143 53.7168Z" stroke="#90C1C1"/>
<path d="M485.678 53.7168L493.812 53.7168L475.734 72.668L467.6 72.668L485.678 53.7168Z" stroke="#90C1C1"/>
<path d="M466.214 53.7168L474.348 53.7168L456.269 72.668L448.135 72.668L466.214 53.7168Z" stroke="#90C1C1"/>
<path d="M395.382 68.5383H366.153L380.768 53.9239L395.382 68.5383Z" stroke="#90C1C1"/>
<path d="M170.201 70.1495C170.201 72.5522 168.253 74.4999 165.85 74.4999C163.448 74.4999 161.5 72.5522 161.5 70.1495C161.5 67.7468 163.448 65.7991 165.85 65.7991C168.253 65.7991 170.201 67.7468 170.201 70.1495Z" stroke="#90C1C1"/>
<path d="M177.823 56.2912C177.823 58.6939 175.875 60.6416 173.472 60.6416C171.07 60.6416 169.122 58.6939 169.122 56.2912C169.122 53.8885 171.07 51.9408 173.472 51.9408C175.875 51.9408 177.823 53.8885 177.823 56.2912Z" stroke="#90C1C1"/>
<path d="M185.445 70.1495C185.445 72.5522 183.497 74.4999 181.095 74.4999C178.692 74.4999 176.744 72.5522 176.744 70.1495C176.744 67.7468 178.692 65.7991 181.095 65.7991C183.497 65.7991 185.445 67.7468 185.445 70.1495Z" stroke="#90C1C1"/>
<path d="M193.067 56.2912C193.067 58.6939 191.119 60.6416 188.717 60.6416C186.314 60.6416 184.366 58.6939 184.366 56.2912C184.366 53.8885 186.314 51.9408 188.717 51.9408C191.119 51.9408 193.067 53.8885 193.067 56.2912Z" stroke="#90C1C1"/>
<path d="M218.804 51.5H222.399V73.5973H218.804V51.5Z" stroke="#90C1C1"/>
<path d="M209.553 60.7515H231.65V64.3458H209.553V60.7515Z" stroke="#90C1C1"/>
<path d="M227.143 53.4653L229.684 56.0069L214.059 71.632L211.517 69.0904L227.143 53.4653Z" stroke="#90C1C1"/>
<path d="M229.685 69.0905L227.143 71.632L211.518 56.0069L214.06 53.4653L229.685 69.0905Z" stroke="#90C1C1"/>
<path d="M257.158 51.5H260.753V73.5973H257.158V51.5Z" stroke="#90C1C1"/>
<path d="M247.907 60.7515H270.004V64.3458H247.907V60.7515Z" stroke="#90C1C1"/>
<path d="M265.497 53.4653L268.038 56.0069L252.413 71.632L249.871 69.0904L265.497 53.4653Z" stroke="#90C1C1"/>
<path d="M268.039 69.0905L265.497 71.632L249.872 56.0069L252.414 53.4653L268.039 69.0905Z" stroke="#90C1C1"/>
<path d="M295.512 51.5H299.107V73.5973H295.512V51.5Z" stroke="#90C1C1"/>
<path d="M286.261 60.7515H308.358V64.3458H286.261V60.7515Z" stroke="#90C1C1"/>
<path d="M303.851 53.4653L306.392 56.0069L290.767 71.632L288.225 69.0904L303.851 53.4653Z" stroke="#90C1C1"/>
<path d="M306.393 69.0905L303.851 71.632L288.226 56.0069L290.768 53.4653L306.393 69.0905Z" stroke="#90C1C1"/>
<path d="M333.866 51.5H337.46V73.5973H333.866V51.5Z" stroke="#90C1C1"/>
<path d="M324.614 60.7515H346.712V64.3458H324.614V60.7515Z" stroke="#90C1C1"/>
<path d="M342.204 53.4653L344.746 56.0069L329.121 71.632L326.579 69.0904L342.204 53.4653Z" stroke="#90C1C1"/>
<path d="M344.747 69.0905L342.205 71.632L326.58 56.0069L329.121 53.4653L344.747 69.0905Z" stroke="#90C1C1"/>
<path d="M420.142 51.5H423.736V73.5973H420.142V51.5Z" stroke="#90C1C1"/>
<path d="M410.891 60.7515H432.988V64.3458H410.891V60.7515Z" stroke="#90C1C1"/>
<path d="M428.48 53.4653L431.022 56.0069L415.397 71.632L412.855 69.0904L428.48 53.4653Z" stroke="#90C1C1"/>
<path d="M431.023 69.0905L428.481 71.632L412.856 56.0069L415.398 53.4653L431.023 69.0905Z" stroke="#90C1C1"/>
<defs>
<radialGradient id="paint0_radial" cx="0" cy="0" r="1" gradientUnits="userSpaceOnUse" gradientTransform="translate(450 191.5) rotate(-178.098) scale(406.724 955.748)">
<stop stop-color="#445757" stop-opacity="0"/>
<stop offset="0.795441" stop-color="#445757" stop-opacity="0.37"/>
<stop offset="1" stop-color="#97F8FB" stop-opacity="0.31"/>
</radialGradient>
<linearGradient id="paint1_linear" x1="0" y1="192" x2="900" y2="192" gradientUnits="userSpaceOnUse">
<stop stop-color="#F1F1F1"/>
<stop offset="0.906431" stop-color="#D7D7D7"/>
<stop offset="1" stop-color="#C7C7C7"/>
</linearGradient>
<linearGradient id="paint2_linear" x1="852" y1="287" x2="854" y2="63" gradientUnits="userSpaceOnUse">
<stop stop-color="#DFBCBA"/>
<stop offset="0.469376" stop-color="#EAF0F3"/>
<stop offset="1" stop-color="#86C4D9"/>
</linearGradient>
<linearGradient id="paint3_linear" x1="35.9996" y1="65.0162" x2="36.9999" y2="183" gradientUnits="userSpaceOnUse">
<stop stop-color="#C9E3EB"/>
<stop offset="0.469376" stop-color="#F4F4F4"/>
<stop offset="1" stop-color="#F4F4F4"/>
</linearGradient>
<linearGradient id="paint4_linear" x1="37.6068" y1="184.115" x2="60.6676" y2="207.151" gradientUnits="userSpaceOnUse">
<stop stop-color="#C9E3EB"/>
<stop offset="0.469376" stop-color="#F4F4F4"/>
<stop offset="1" stop-color="#F4F4F4"/>
</linearGradient>
<linearGradient id="paint5_linear" x1="53.1009" y1="268.049" x2="36.9068" y2="296.336" gradientUnits="userSpaceOnUse">
<stop stop-color="#C8C8C8"/>
<stop offset="0.469376" stop-color="#F4F4F4"/>
<stop offset="1" stop-color="#F4F4F4"/>
</linearGradient>
<linearGradient id="paint6_linear" x1="854" y1="64.778" x2="628.005" y2="62.4876" gradientUnits="userSpaceOnUse">
<stop stop-color="#B6BCBF"/>
<stop offset="0.469376" stop-color="#D8DADC"/>
<stop offset="1" stop-color="#E6E6E6"/>
</linearGradient>
<linearGradient id="paint7_linear" x1="581" y1="36" x2="69.0026" y2="34.8385" gradientUnits="userSpaceOnUse">
<stop stop-color="#FBFBFB"/>
<stop offset="0.469376" stop-color="#DDDDDD"/>
<stop offset="1" stop-color="#ADADAD"/>
</linearGradient>
<linearGradient id="paint8_linear" x1="33.2617" y1="344" x2="789.253" y2="346.532" gradientUnits="userSpaceOnUse">
<stop stop-color="#AFB5B9"/>
<stop offset="0.469376" stop-color="#D1D4D5"/>
<stop offset="1" stop-color="#E6E6E6"/>
</linearGradient>
<linearGradient id="paint9_linear" x1="78.6984" y1="46.4271" x2="25.6483" y2="114.959" gradientUnits="userSpaceOnUse">
<stop stop-color="#BEE3E6"/>
<stop offset="0.469376" stop-color="#D7E6E7"/>
<stop offset="1" stop-color="#E4E6E6"/>
</linearGradient>
<linearGradient id="paint10_linear" x1="594.5" y1="51.5" x2="597.795" y2="47.3379" gradientUnits="userSpaceOnUse">
<stop stop-color="#BEE3E6"/>
<stop offset="0.469376" stop-color="#D7E6E7"/>
<stop offset="1" stop-color="#E4E6E6"/>
</linearGradient>
<linearGradient id="paint11_linear" x1="789" y1="348" x2="850.654" y2="279.968" gradientUnits="userSpaceOnUse">
<stop stop-color="#B3DADD"/>
<stop offset="0.469376" stop-color="#C4D0D2"/>
<stop offset="1" stop-color="#E4E6E6"/>
</linearGradient>
<linearGradient id="paint12_linear" x1="40.1572" y1="293.554" x2="40.4571" y2="335.255" gradientUnits="userSpaceOnUse">
<stop stop-color="#C9E3EB"/>
<stop offset="0.469376" stop-color="#F4F4F4"/>
<stop offset="1" stop-color="#F4F4F4"/>
</linearGradient>
</defs>
</svg>
