<svg width="390" height="72" viewBox="0 0 390 72" fill="none" xmlns="http://www.w3.org/2000/svg">
<path d="M17 71.8504L21.9 66.3504L24.6 47.3504H17.2L12.8 71.8504H0L11.9 5.05038L9.89999 1.7504H43.9L35 65.2504C34.6 68.0504 32.6 69.9504 32.6 69.9504C30.6 71.8504 28 71.8504 28 71.8504H17ZM79.2 18.7504L69.2 39.5504L73.7 58.7504H64.3L62.3 50.7504L58.4 58.7504H49.2L48.9 60.8504H73.7L79.1 22.4504H90.4L83.7 70.1504H36.1L42.8 22.4504H54.3L49.3 58.2504L58.6 39.6504L54.7 18.7504H64.1L65.6 26.9504L69.9 18.7504H79.2ZM61.1 7.3504L61.6 4.05038L58.5 0.150391H77.6L76.6 7.3504H92.7L91.4 16.9504H43.7L45 7.3504H61.1ZM18.9 37.8504H25.9L27.1 29.2504H20.5L18.9 37.8504ZM22.2 19.7504H28.5L29.7 11.2504H23.8L22.2 19.7504Z" fill="url(#paint0_linear)"/>
<path d="M152.9 15.2H189.3L182.3 65.4C181.8 68.3 179.55 70.15 179.55 70.15C177.3 72 174.5 72 174.5 72H154.7L163.7 62.7L169 24.7H147.8L122.4 72H103.4L128.8 24.7H108.2L109.5 15.2H133.9L140.6 2.70001L138.3 0H161.1L152.9 15.2Z" fill="url(#paint1_linear)"/>
<path d="M207 63.8004L209.5 46.2004H284.9L282.4 63.8004H286.4L285.4 71.1004H202L203 63.8004H207ZM272.2 21.2004L271.2 17.5004L270.7 21.7004H229L229.5 18.0004L227.6 21.2004H210.5L221.9 4.20041L219.6 0.900391H283.8L290.7 21.2004H272.2ZM285.8 24.9004L283.1 43.5004H212.5L215.2 24.9004H285.8ZM231.7 14.3004H270.4L269.6 10.9004H233.7L231.7 14.3004ZM264 36.3004L264.5 32.6004H232L231.5 36.3004H264ZM263.1 54.0004L261.8 63.8004H266.4L267.8 54.0004H263.1ZM242.9 63.8004H247.5L248.8 54.0004H244.2L242.9 63.8004ZM224 63.8004H228.6L229.9 54.0004H225.4L224 63.8004Z" fill="url(#paint2_linear)"/>
<path d="M336.45 29.4502L337.55 21.8502L364.55 10.4502H310.65L311.95 0.950195H389.85L388.05 14.2502L355.65 27.9502L355.45 29.4502H387.75L386.45 38.9502H354.05L350.55 64.4502C350.15 67.3502 347.95 69.2002 347.95 69.2002C345.75 71.0502 342.85 71.0502 342.85 71.0502H323.05L331.95 61.7502L335.15 38.9502H302.85L304.15 29.4502H336.45Z" fill="url(#paint3_linear)"/>
<defs>
<linearGradient id="paint0_linear" x1="46.35" y1="0.150391" x2="46.35" y2="71.8504" gradientUnits="userSpaceOnUse">
<stop stop-color="#A3D1D0"/>
<stop offset="0.197917" stop-color="#B4CBCF"/>
<stop offset="1" stop-color="#B9C2C8"/>
</linearGradient>
<linearGradient id="paint1_linear" x1="146.35" y1="0" x2="146.35" y2="72" gradientUnits="userSpaceOnUse">
<stop stop-color="#A3D1D0"/>
<stop offset="0.197917" stop-color="#B4CBCF"/>
<stop offset="1" stop-color="#B9C2C8"/>
</linearGradient>
<linearGradient id="paint2_linear" x1="246.35" y1="0.900391" x2="246.35" y2="71.1004" gradientUnits="userSpaceOnUse">
<stop stop-color="#A3D1D0"/>
<stop offset="0.197917" stop-color="#B4CBCF"/>
<stop offset="1" stop-color="#B9C2C8"/>
</linearGradient>
<linearGradient id="paint3_linear" x1="346.35" y1="0.950195" x2="346.35" y2="71.0502" gradientUnits="userSpaceOnUse">
<stop stop-color="#A3D1D0"/>
<stop offset="0.197917" stop-color="#B4CBCF"/>
<stop offset="1" stop-color="#B9C2C8"/>
</linearGradient>
</defs>
</svg>
